<svg version="1" xmlns="http://www.w3.org/2000/svg" width="866.667" height="866.667" viewBox="0 0 650.000000 650.000000"><path d="M65.5 132.2C53 154.4 35 186 25.7 202.5 16.3 219 6.8 235.9 4.4 240l-4.3 7.5 4.2 3.9c2.3 2.1 9.4 8.8 15.7 15C35.1 281 71.5 315.9 76 320c1.9 1.8 8.9 8.4 15.5 14.8 6.6 6.3 17 16.3 23 22.1 6.1 5.8 17.5 16.8 25.5 24.6 18.3 17.6 38.5 37 52.1 50 5.7 5.5 19.9 19.1 31.4 30.1 11.6 11.1 22.6 21.6 24.5 23.4 1.9 1.8 12.7 12.1 24 23s22.1 21.2 24 23c10.6 9.7 17.2 15.9 22.7 21.3l6.2 6 4.8-4.3c2.6-2.4 10.4-9.7 17.3-16.3 17.2-16.5 30.7-29.5 57-54.7 12.4-11.8 28.1-26.9 35-33.5 6.9-6.6 13.9-13.4 15.6-15 21.3-20.3 40.3-38.6 62.5-60 13.5-13.1 51.3-49.3 60.4-58 1.8-1.7 11.7-11.2 22.1-21.1 10.4-10 20.9-20.1 23.4-22.4 10-9.3 26-25.2 26-25.7 0-.3-19.7-35.4-43.7-77.9L561.5 92H88.4l-22.9 40.2zM417 248h7.5l-6.5 6.2c-3.6 3.3-16 15.2-27.5 26.4-11.6 11.1-22.8 21.9-25 24-2.2 2-12 11.4-21.8 20.8s-18.2 17.1-18.7 17.1c-.9 0-16.4-14.7-70.4-66.6-6.7-6.4-15.9-15.2-20.5-19.5l-8.3-7.9 10.3-.5c8-.4 131.7-.4 180.9 0z"/></svg>